<?xml version="1.0" encoding="UTF-8" standalone="no"?>
<!DOCTYPE svg PUBLIC "-//W3C//DTD SVG 1.1//EN"
 "http://www.w3.org/Graphics/SVG/1.1/DTD/svg11.dtd">
<!-- Generated by graphviz version 2.40.1 (20161225.0304)
 -->
<!-- Title: state transitions Pages: 1 -->
<svg width="492pt" height="446pt"
 viewBox="0.00 0.00 492.00 446.00" xmlns="http://www.w3.org/2000/svg" xmlns:xlink="http://www.w3.org/1999/xlink">
<g id="graph0" class="graph" transform="scale(1 1) rotate(0) translate(4 442)">
<title>state transitions</title>
<polygon fill="#ffffff" stroke="transparent" points="-4,4 -4,-442 488,-442 488,4 -4,4"/>
<g id="clust1" class="cluster state regular">
<title>cluster_state</title>
<path fill="none" stroke="#000000" stroke-width="2" d="M20,-8C20,-8 464,-8 464,-8 470,-8 476,-14 476,-20 476,-20 476,-418 476,-418 476,-424 470,-430 464,-430 464,-430 20,-430 20,-430 14,-430 8,-424 8,-418 8,-418 8,-20 8,-20 8,-14 14,-8 20,-8"/>
<text text-anchor="start" x="228.9944" y="-411.2" font-family="Helvetica,sans-Serif" font-size="12.00" fill="#000000">state</text>
</g>
<!-- state -->
<!-- IDLE -->
<g id="node2" class="node state regular">
<title>IDLE</title>
<polygon fill="#ffffff" fill-opacity="0.003922" stroke="transparent" stroke-width="2" points="211,-392 155,-392 155,-356 211,-356 211,-392"/>
<text text-anchor="start" x="169.6644" y="-370.2" font-family="Helvetica,sans-Serif" font-size="12.00" fill="#000000">IDLE</text>
<path fill="none" stroke="#000000" stroke-width="2" d="M167.3333,-357C167.3333,-357 198.6667,-357 198.6667,-357 204.3333,-357 210,-362.6667 210,-368.3333 210,-368.3333 210,-379.6667 210,-379.6667 210,-385.3333 204.3333,-391 198.6667,-391 198.6667,-391 167.3333,-391 167.3333,-391 161.6667,-391 156,-385.3333 156,-379.6667 156,-379.6667 156,-368.3333 156,-368.3333 156,-362.6667 161.6667,-357 167.3333,-357"/>
</g>
<!-- IDLE&#45;&gt;IDLE -->
<g id="edge2" class="edge transition">
<title>IDLE&#45;&gt;IDLE</title>
<path fill="none" stroke="#000000" d="M211.0183,-378.8247C222.888,-379.1883 233,-377.5801 233,-374 233,-371.5387 228.2205,-370.0094 221.3762,-369.4121"/>
<polygon fill="#000000" stroke="#000000" points="221.0957,-365.9049 211.0183,-369.1753 220.9356,-372.903 221.0957,-365.9049"/>
<text text-anchor="start" x="233" y="-371" font-family="Helvetica,sans-Serif" font-size="10.00" fill="#000000">not (MDIO_OE &amp;&amp; MDIO_OUT) &#160;&#160;</text>
</g>
<!-- OP_CODE -->
<g id="node3" class="node state regular">
<title>OP_CODE</title>
<polygon fill="#ffffff" fill-opacity="0.003922" stroke="transparent" stroke-width="2" points="223,-310 143,-310 143,-274 223,-274 223,-310"/>
<text text-anchor="start" x="153.6642" y="-288.2" font-family="Helvetica,sans-Serif" font-size="12.00" fill="#000000">OP_CODE</text>
<path fill="none" stroke="#000000" stroke-width="2" d="M155.3333,-275C155.3333,-275 210.6667,-275 210.6667,-275 216.3333,-275 222,-280.6667 222,-286.3333 222,-286.3333 222,-297.6667 222,-297.6667 222,-303.3333 216.3333,-309 210.6667,-309 210.6667,-309 155.3333,-309 155.3333,-309 149.6667,-309 144,-303.3333 144,-297.6667 144,-297.6667 144,-286.3333 144,-286.3333 144,-280.6667 149.6667,-275 155.3333,-275"/>
</g>
<!-- IDLE&#45;&gt;OP_CODE -->
<g id="edge1" class="edge transition">
<title>IDLE&#45;&gt;OP_CODE</title>
<path fill="none" stroke="#000000" d="M183,-355.8015C183,-345.3976 183,-332.1215 183,-320.3768"/>
<polygon fill="#000000" stroke="#000000" points="186.5001,-320.1476 183,-310.1476 179.5001,-320.1476 186.5001,-320.1476"/>
<text text-anchor="start" x="183" y="-330" font-family="Helvetica,sans-Serif" font-size="10.00" fill="#000000">MDIO_OE &amp;&amp; MDIO_OUT &#160;&#160;</text>
</g>
<!-- OP_CODE&#45;&gt;OP_CODE -->
<g id="edge4" class="edge transition">
<title>OP_CODE&#45;&gt;OP_CODE</title>
<path fill="none" stroke="#000000" d="M223.2514,-296.8676C235.4582,-296.7456 245,-295.123 245,-292 245,-289.8529 240.49,-288.415 233.7046,-287.6864"/>
<polygon fill="#000000" stroke="#000000" points="233.4226,-284.1666 223.2514,-287.1324 233.0521,-291.1568 233.4226,-284.1666"/>
<text text-anchor="start" x="245" y="-289" font-family="Helvetica,sans-Serif" font-size="10.00" fill="#000000">not (bit_count == 23) &#160;&#160;</text>
</g>
<!-- REG_ADDR -->
<g id="node4" class="node state regular">
<title>REG_ADDR</title>
<polygon fill="#ffffff" fill-opacity="0.003922" stroke="transparent" stroke-width="2" points="227,-228 139,-228 139,-192 227,-192 227,-228"/>
<text text-anchor="start" x="149.6688" y="-206.2" font-family="Helvetica,sans-Serif" font-size="12.00" fill="#000000">REG_ADDR</text>
<path fill="none" stroke="#000000" stroke-width="2" d="M151.3333,-193C151.3333,-193 214.6667,-193 214.6667,-193 220.3333,-193 226,-198.6667 226,-204.3333 226,-204.3333 226,-215.6667 226,-215.6667 226,-221.3333 220.3333,-227 214.6667,-227 214.6667,-227 151.3333,-227 151.3333,-227 145.6667,-227 140,-221.3333 140,-215.6667 140,-215.6667 140,-204.3333 140,-204.3333 140,-198.6667 145.6667,-193 151.3333,-193"/>
</g>
<!-- OP_CODE&#45;&gt;REG_ADDR -->
<g id="edge3" class="edge transition">
<title>OP_CODE&#45;&gt;REG_ADDR</title>
<path fill="none" stroke="#000000" d="M183,-273.8015C183,-263.3976 183,-250.1215 183,-238.3768"/>
<polygon fill="#000000" stroke="#000000" points="186.5001,-238.1476 183,-228.1476 179.5001,-238.1476 186.5001,-238.1476"/>
<text text-anchor="start" x="183" y="-248" font-family="Helvetica,sans-Serif" font-size="10.00" fill="#000000">bit_count == 23 &#160;&#160;</text>
</g>
<!-- REG_ADDR&#45;&gt;REG_ADDR -->
<g id="edge6" class="edge transition">
<title>REG_ADDR&#45;&gt;REG_ADDR</title>
<path fill="none" stroke="#000000" d="M227.1067,-214.8509C239.4925,-214.6385 249,-213.0215 249,-210 249,-207.8755 244.2996,-206.4454 237.2033,-205.7097"/>
<polygon fill="#000000" stroke="#000000" points="237.2854,-202.2089 227.1067,-205.1491 236.8973,-209.1982 237.2854,-202.2089"/>
<text text-anchor="start" x="249" y="-207" font-family="Helvetica,sans-Serif" font-size="10.00" fill="#000000">not (bit_count == 18) &#160;&#160;</text>
</g>
<!-- TURNAROUND -->
<g id="node5" class="node state regular">
<title>TURNAROUND</title>
<polygon fill="#ffffff" fill-opacity="0.003922" stroke="transparent" stroke-width="2" points="236.5,-146 129.5,-146 129.5,-110 236.5,-110 236.5,-146"/>
<text text-anchor="start" x="140.846" y="-124.2" font-family="Helvetica,sans-Serif" font-size="12.00" fill="#000000">TURNAROUND</text>
<path fill="none" stroke="#000000" stroke-width="2" d="M141.8333,-111C141.8333,-111 224.1667,-111 224.1667,-111 229.8333,-111 235.5,-116.6667 235.5,-122.3333 235.5,-122.3333 235.5,-133.6667 235.5,-133.6667 235.5,-139.3333 229.8333,-145 224.1667,-145 224.1667,-145 141.8333,-145 141.8333,-145 136.1667,-145 130.5,-139.3333 130.5,-133.6667 130.5,-133.6667 130.5,-122.3333 130.5,-122.3333 130.5,-116.6667 136.1667,-111 141.8333,-111"/>
</g>
<!-- REG_ADDR&#45;&gt;TURNAROUND -->
<g id="edge5" class="edge transition">
<title>REG_ADDR&#45;&gt;TURNAROUND</title>
<path fill="none" stroke="#000000" d="M183,-191.8015C183,-181.3976 183,-168.1215 183,-156.3768"/>
<polygon fill="#000000" stroke="#000000" points="186.5001,-156.1476 183,-146.1476 179.5001,-156.1476 186.5001,-156.1476"/>
<text text-anchor="start" x="183" y="-166" font-family="Helvetica,sans-Serif" font-size="10.00" fill="#000000">bit_count == 18 &#160;&#160;</text>
</g>
<!-- TURNAROUND&#45;&gt;TURNAROUND -->
<g id="edge9" class="edge transition">
<title>TURNAROUND&#45;&gt;TURNAROUND</title>
<path fill="none" stroke="#000000" d="M236.6104,-132.7786C249.2069,-132.3858 258.5,-130.793 258.5,-128 258.5,-126.0362 253.9056,-124.6657 246.799,-123.8885"/>
<polygon fill="#000000" stroke="#000000" points="246.8177,-120.3823 236.6104,-123.2214 246.3603,-127.3674 246.8177,-120.3823"/>
<text text-anchor="start" x="258.5" y="-125" font-family="Helvetica,sans-Serif" font-size="10.00" fill="#000000">not (bit_count == 16) &#160;&#160;</text>
</g>
<!-- WRITE_DATA -->
<g id="node6" class="node state regular">
<title>WRITE_DATA</title>
<polygon fill="#ffffff" fill-opacity="0.003922" stroke="transparent" stroke-width="2" points="115.5,-52 16.5,-52 16.5,-16 115.5,-16 115.5,-52"/>
<text text-anchor="start" x="27.836" y="-30.2" font-family="Helvetica,sans-Serif" font-size="12.00" fill="#000000">WRITE_DATA</text>
<path fill="none" stroke="#000000" stroke-width="2" d="M28.8333,-17C28.8333,-17 103.1667,-17 103.1667,-17 108.8333,-17 114.5,-22.6667 114.5,-28.3333 114.5,-28.3333 114.5,-39.6667 114.5,-39.6667 114.5,-45.3333 108.8333,-51 103.1667,-51 103.1667,-51 28.8333,-51 28.8333,-51 23.1667,-51 17.5,-45.3333 17.5,-39.6667 17.5,-39.6667 17.5,-28.3333 17.5,-28.3333 17.5,-22.6667 23.1667,-17 28.8333,-17"/>
</g>
<!-- TURNAROUND&#45;&gt;WRITE_DATA -->
<g id="edge8" class="edge transition">
<title>TURNAROUND&#45;&gt;WRITE_DATA</title>
<path fill="none" stroke="#000000" d="M160.4412,-109.8759C142.232,-95.2462 116.4375,-74.5224 96.4061,-58.4288"/>
<polygon fill="#000000" stroke="#000000" points="98.4773,-55.6032 88.4895,-52.0685 94.0931,-61.0602 98.4773,-55.6032"/>
<text text-anchor="start" x="138" y="-84" font-family="Helvetica,sans-Serif" font-size="10.00" fill="#000000">not (op_bit) &#160;&#160;</text>
<text text-anchor="start" x="138" y="-72" font-family="Helvetica,sans-Serif" font-size="10.00" fill="#000000">bit_count == 16 &#160;&#160;</text>
</g>
<!-- READ_DATA -->
<g id="node7" class="node state regular">
<title>READ_DATA</title>
<polygon fill="#ffffff" fill-opacity="0.003922" stroke="transparent" stroke-width="2" points="350,-52 256,-52 256,-16 350,-16 350,-52"/>
<text text-anchor="start" x="266.9994" y="-30.2" font-family="Helvetica,sans-Serif" font-size="12.00" fill="#000000">READ_DATA</text>
<path fill="none" stroke="#000000" stroke-width="2" d="M268.3333,-17C268.3333,-17 337.6667,-17 337.6667,-17 343.3333,-17 349,-22.6667 349,-28.3333 349,-28.3333 349,-39.6667 349,-39.6667 349,-45.3333 343.3333,-51 337.6667,-51 337.6667,-51 268.3333,-51 268.3333,-51 262.6667,-51 257,-45.3333 257,-39.6667 257,-39.6667 257,-28.3333 257,-28.3333 257,-22.6667 262.6667,-17 268.3333,-17"/>
</g>
<!-- TURNAROUND&#45;&gt;READ_DATA -->
<g id="edge7" class="edge transition">
<title>TURNAROUND&#45;&gt;READ_DATA</title>
<path fill="none" stroke="#000000" d="M206.1372,-109.8759C224.8133,-95.2462 251.2693,-74.5224 271.8143,-58.4288"/>
<polygon fill="#000000" stroke="#000000" points="274.2199,-60.9905 279.9338,-52.0685 269.9032,-55.4799 274.2199,-60.9905"/>
<text text-anchor="start" x="257" y="-84" font-family="Helvetica,sans-Serif" font-size="10.00" fill="#000000">op_bit &#160;&#160;</text>
<text text-anchor="start" x="257" y="-72" font-family="Helvetica,sans-Serif" font-size="10.00" fill="#000000">bit_count == 16 &#160;&#160;</text>
</g>
<!-- WRITE_DATA&#45;&gt;IDLE -->
<g id="edge10" class="edge transition">
<title>WRITE_DATA&#45;&gt;IDLE</title>
<path fill="none" stroke="#000000" d="M50.2759,-52.4154C44.8004,-60.6223 40,-70.7425 40,-81 40,-333 40,-333 40,-333 40,-354.8313 102.365,-365.709 144.7241,-370.5794"/>
<polygon fill="#000000" stroke="#000000" points="144.4292,-374.0679 154.7478,-371.6644 145.1826,-367.1085 144.4292,-374.0679"/>
<text text-anchor="start" x="40" y="-207" font-family="Helvetica,sans-Serif" font-size="10.00" fill="#000000">bit_count == 31 &#160;&#160;</text>
</g>
<!-- WRITE_DATA&#45;&gt;WRITE_DATA -->
<g id="edge11" class="edge transition">
<title>WRITE_DATA&#45;&gt;WRITE_DATA</title>
<path fill="none" stroke="#000000" d="M115.7872,-38.8081C128.2127,-38.4718 137.5,-36.8691 137.5,-34 137.5,-31.9826 132.9085,-30.5914 125.863,-29.8263"/>
<polygon fill="#000000" stroke="#000000" points="125.9874,-26.3272 115.7872,-29.1919 125.5475,-33.3134 125.9874,-26.3272"/>
<text text-anchor="start" x="137.5" y="-31" font-family="Helvetica,sans-Serif" font-size="10.00" fill="#000000">not (bit_count == 31) &#160;&#160;</text>
</g>
<!-- READ_DATA&#45;&gt;IDLE -->
<g id="edge12" class="edge transition">
<title>READ_DATA&#45;&gt;IDLE</title>
<path fill="none" stroke="#000000" d="M350.026,-42.413C370.1035,-48.979 389,-60.5823 389,-81 389,-333 389,-333 389,-333 389,-349.899 280.9893,-363.8221 221.3894,-370.2184"/>
<polygon fill="#000000" stroke="#000000" points="220.7908,-366.762 211.2115,-371.2882 221.5226,-373.7236 220.7908,-366.762"/>
<text text-anchor="start" x="389" y="-207" font-family="Helvetica,sans-Serif" font-size="10.00" fill="#000000">bit_count == 31 &#160;&#160;</text>
</g>
<!-- READ_DATA&#45;&gt;READ_DATA -->
<g id="edge13" class="edge transition">
<title>READ_DATA&#45;&gt;READ_DATA</title>
<path fill="none" stroke="#000000" d="M350.0851,-38.8322C362.5552,-38.556 372,-36.9453 372,-34 372,-31.9291 367.3306,-30.518 360.2234,-29.7666"/>
<polygon fill="#000000" stroke="#000000" points="360.2741,-26.2636 350.0851,-29.1678 359.8613,-33.2514 360.2741,-26.2636"/>
<text text-anchor="start" x="372" y="-31" font-family="Helvetica,sans-Serif" font-size="10.00" fill="#000000">not (bit_count == 31) &#160;&#160;</text>
</g>
</g>
</svg>
