<?xml version="1.0" encoding="UTF-8" standalone="no"?>
<!DOCTYPE svg PUBLIC "-//W3C//DTD SVG 1.1//EN"
 "http://www.w3.org/Graphics/SVG/1.1/DTD/svg11.dtd">
<!-- Generated by graphviz version 2.40.1 (20161225.0304)
 -->
<!-- Title: state transitions Pages: 1 -->
<svg width="478pt" height="446pt"
 viewBox="0.00 0.00 478.00 446.00" xmlns="http://www.w3.org/2000/svg" xmlns:xlink="http://www.w3.org/1999/xlink">
<g id="graph0" class="graph" transform="scale(1 1) rotate(0) translate(4 442)">
<title>state transitions</title>
<polygon fill="#ffffff" stroke="transparent" points="-4,4 -4,-442 474,-442 474,4 -4,4"/>
<g id="clust1" class="cluster state regular">
<title>cluster_state</title>
<path fill="none" stroke="#000000" stroke-width="2" d="M20,-8C20,-8 450,-8 450,-8 456,-8 462,-14 462,-20 462,-20 462,-418 462,-418 462,-424 456,-430 450,-430 450,-430 20,-430 20,-430 14,-430 8,-424 8,-418 8,-418 8,-20 8,-20 8,-14 14,-8 20,-8"/>
<text text-anchor="start" x="221.9944" y="-411.2" font-family="Helvetica,sans-Serif" font-size="12.00" fill="#000000">state</text>
</g>
<!-- state -->
<!-- IDLE -->
<g id="node2" class="node state regular">
<title>IDLE</title>
<polygon fill="#ffffff" fill-opacity="0.003922" stroke="transparent" stroke-width="2" points="205,-392 149,-392 149,-356 205,-356 205,-392"/>
<text text-anchor="start" x="163.6644" y="-370.2" font-family="Helvetica,sans-Serif" font-size="12.00" fill="#000000">IDLE</text>
<path fill="none" stroke="#000000" stroke-width="2" d="M161.3333,-357C161.3333,-357 192.6667,-357 192.6667,-357 198.3333,-357 204,-362.6667 204,-368.3333 204,-368.3333 204,-379.6667 204,-379.6667 204,-385.3333 198.3333,-391 192.6667,-391 192.6667,-391 161.3333,-391 161.3333,-391 155.6667,-391 150,-385.3333 150,-379.6667 150,-379.6667 150,-368.3333 150,-368.3333 150,-362.6667 155.6667,-357 161.3333,-357"/>
</g>
<!-- IDLE&#45;&gt;IDLE -->
<g id="edge2" class="edge transition">
<title>IDLE&#45;&gt;IDLE</title>
<path fill="none" stroke="#000000" d="M205.0183,-378.8247C216.888,-379.1883 227,-377.5801 227,-374 227,-371.5387 222.2205,-370.0094 215.3762,-369.4121"/>
<polygon fill="#000000" stroke="#000000" points="215.0957,-365.9049 205.0183,-369.1753 214.9356,-372.903 215.0957,-365.9049"/>
<text text-anchor="start" x="227" y="-371" font-family="Helvetica,sans-Serif" font-size="10.00" fill="#000000">not (MDIO_OE &amp;&amp; MDIO_OUT) &#160;&#160;</text>
</g>
<!-- OP_CODE -->
<g id="node3" class="node state regular">
<title>OP_CODE</title>
<polygon fill="#ffffff" fill-opacity="0.003922" stroke="transparent" stroke-width="2" points="217,-310 137,-310 137,-274 217,-274 217,-310"/>
<text text-anchor="start" x="147.6642" y="-288.2" font-family="Helvetica,sans-Serif" font-size="12.00" fill="#000000">OP_CODE</text>
<path fill="none" stroke="#000000" stroke-width="2" d="M149.3333,-275C149.3333,-275 204.6667,-275 204.6667,-275 210.3333,-275 216,-280.6667 216,-286.3333 216,-286.3333 216,-297.6667 216,-297.6667 216,-303.3333 210.3333,-309 204.6667,-309 204.6667,-309 149.3333,-309 149.3333,-309 143.6667,-309 138,-303.3333 138,-297.6667 138,-297.6667 138,-286.3333 138,-286.3333 138,-280.6667 143.6667,-275 149.3333,-275"/>
</g>
<!-- IDLE&#45;&gt;OP_CODE -->
<g id="edge1" class="edge transition">
<title>IDLE&#45;&gt;OP_CODE</title>
<path fill="none" stroke="#000000" d="M177,-355.8015C177,-345.3976 177,-332.1215 177,-320.3768"/>
<polygon fill="#000000" stroke="#000000" points="180.5001,-320.1476 177,-310.1476 173.5001,-320.1476 180.5001,-320.1476"/>
<text text-anchor="start" x="177" y="-330" font-family="Helvetica,sans-Serif" font-size="10.00" fill="#000000">MDIO_OE &amp;&amp; MDIO_OUT &#160;&#160;</text>
</g>
<!-- OP_CODE&#45;&gt;OP_CODE -->
<g id="edge4" class="edge transition">
<title>OP_CODE&#45;&gt;OP_CODE</title>
<path fill="none" stroke="#000000" d="M217.2514,-296.8676C229.4582,-296.7456 239,-295.123 239,-292 239,-289.8529 234.49,-288.415 227.7046,-287.6864"/>
<polygon fill="#000000" stroke="#000000" points="227.4226,-284.1666 217.2514,-287.1324 227.0521,-291.1568 227.4226,-284.1666"/>
<text text-anchor="start" x="239" y="-289" font-family="Helvetica,sans-Serif" font-size="10.00" fill="#000000">not (contador == 23) &#160;&#160;</text>
</g>
<!-- REG_ADDR -->
<g id="node4" class="node state regular">
<title>REG_ADDR</title>
<polygon fill="#ffffff" fill-opacity="0.003922" stroke="transparent" stroke-width="2" points="221,-228 133,-228 133,-192 221,-192 221,-228"/>
<text text-anchor="start" x="143.6688" y="-206.2" font-family="Helvetica,sans-Serif" font-size="12.00" fill="#000000">REG_ADDR</text>
<path fill="none" stroke="#000000" stroke-width="2" d="M145.3333,-193C145.3333,-193 208.6667,-193 208.6667,-193 214.3333,-193 220,-198.6667 220,-204.3333 220,-204.3333 220,-215.6667 220,-215.6667 220,-221.3333 214.3333,-227 208.6667,-227 208.6667,-227 145.3333,-227 145.3333,-227 139.6667,-227 134,-221.3333 134,-215.6667 134,-215.6667 134,-204.3333 134,-204.3333 134,-198.6667 139.6667,-193 145.3333,-193"/>
</g>
<!-- OP_CODE&#45;&gt;REG_ADDR -->
<g id="edge3" class="edge transition">
<title>OP_CODE&#45;&gt;REG_ADDR</title>
<path fill="none" stroke="#000000" d="M177,-273.8015C177,-263.3976 177,-250.1215 177,-238.3768"/>
<polygon fill="#000000" stroke="#000000" points="180.5001,-238.1476 177,-228.1476 173.5001,-238.1476 180.5001,-238.1476"/>
<text text-anchor="start" x="177" y="-248" font-family="Helvetica,sans-Serif" font-size="10.00" fill="#000000">contador == 23 &#160;&#160;</text>
</g>
<!-- REG_ADDR&#45;&gt;REG_ADDR -->
<g id="edge6" class="edge transition">
<title>REG_ADDR&#45;&gt;REG_ADDR</title>
<path fill="none" stroke="#000000" d="M221.1067,-214.8509C233.4925,-214.6385 243,-213.0215 243,-210 243,-207.8755 238.2996,-206.4454 231.2033,-205.7097"/>
<polygon fill="#000000" stroke="#000000" points="231.2854,-202.2089 221.1067,-205.1491 230.8973,-209.1982 231.2854,-202.2089"/>
<text text-anchor="start" x="243" y="-207" font-family="Helvetica,sans-Serif" font-size="10.00" fill="#000000">not (contador == 18) &#160;&#160;</text>
</g>
<!-- TURNAROUND -->
<g id="node5" class="node state regular">
<title>TURNAROUND</title>
<polygon fill="#ffffff" fill-opacity="0.003922" stroke="transparent" stroke-width="2" points="230.5,-146 123.5,-146 123.5,-110 230.5,-110 230.5,-146"/>
<text text-anchor="start" x="134.846" y="-124.2" font-family="Helvetica,sans-Serif" font-size="12.00" fill="#000000">TURNAROUND</text>
<path fill="none" stroke="#000000" stroke-width="2" d="M135.8333,-111C135.8333,-111 218.1667,-111 218.1667,-111 223.8333,-111 229.5,-116.6667 229.5,-122.3333 229.5,-122.3333 229.5,-133.6667 229.5,-133.6667 229.5,-139.3333 223.8333,-145 218.1667,-145 218.1667,-145 135.8333,-145 135.8333,-145 130.1667,-145 124.5,-139.3333 124.5,-133.6667 124.5,-133.6667 124.5,-122.3333 124.5,-122.3333 124.5,-116.6667 130.1667,-111 135.8333,-111"/>
</g>
<!-- REG_ADDR&#45;&gt;TURNAROUND -->
<g id="edge5" class="edge transition">
<title>REG_ADDR&#45;&gt;TURNAROUND</title>
<path fill="none" stroke="#000000" d="M177,-191.8015C177,-181.3976 177,-168.1215 177,-156.3768"/>
<polygon fill="#000000" stroke="#000000" points="180.5001,-156.1476 177,-146.1476 173.5001,-156.1476 180.5001,-156.1476"/>
<text text-anchor="start" x="177" y="-166" font-family="Helvetica,sans-Serif" font-size="10.00" fill="#000000">contador == 18 &#160;&#160;</text>
</g>
<!-- TURNAROUND&#45;&gt;TURNAROUND -->
<g id="edge9" class="edge transition">
<title>TURNAROUND&#45;&gt;TURNAROUND</title>
<path fill="none" stroke="#000000" d="M230.6104,-132.7786C243.2069,-132.3858 252.5,-130.793 252.5,-128 252.5,-126.0362 247.9056,-124.6657 240.799,-123.8885"/>
<polygon fill="#000000" stroke="#000000" points="240.8177,-120.3823 230.6104,-123.2214 240.3603,-127.3674 240.8177,-120.3823"/>
<text text-anchor="start" x="252.5" y="-125" font-family="Helvetica,sans-Serif" font-size="10.00" fill="#000000">not (contador == 16) &#160;&#160;</text>
</g>
<!-- WRITE_DATA -->
<g id="node6" class="node state regular">
<title>WRITE_DATA</title>
<polygon fill="#ffffff" fill-opacity="0.003922" stroke="transparent" stroke-width="2" points="115.5,-52 16.5,-52 16.5,-16 115.5,-16 115.5,-52"/>
<text text-anchor="start" x="27.836" y="-30.2" font-family="Helvetica,sans-Serif" font-size="12.00" fill="#000000">WRITE_DATA</text>
<path fill="none" stroke="#000000" stroke-width="2" d="M28.8333,-17C28.8333,-17 103.1667,-17 103.1667,-17 108.8333,-17 114.5,-22.6667 114.5,-28.3333 114.5,-28.3333 114.5,-39.6667 114.5,-39.6667 114.5,-45.3333 108.8333,-51 103.1667,-51 103.1667,-51 28.8333,-51 28.8333,-51 23.1667,-51 17.5,-45.3333 17.5,-39.6667 17.5,-39.6667 17.5,-28.3333 17.5,-28.3333 17.5,-22.6667 23.1667,-17 28.8333,-17"/>
</g>
<!-- TURNAROUND&#45;&gt;WRITE_DATA -->
<g id="edge8" class="edge transition">
<title>TURNAROUND&#45;&gt;WRITE_DATA</title>
<path fill="none" stroke="#000000" d="M155.5981,-109.8759C138.3995,-95.3112 114.0683,-74.7065 95.1005,-58.6437"/>
<polygon fill="#000000" stroke="#000000" points="97.2294,-55.8601 87.3362,-52.0685 92.7056,-61.202 97.2294,-55.8601"/>
<text text-anchor="start" x="135" y="-84" font-family="Helvetica,sans-Serif" font-size="10.00" fill="#000000">not (op_bit) &#160;&#160;</text>
<text text-anchor="start" x="135" y="-72" font-family="Helvetica,sans-Serif" font-size="10.00" fill="#000000">contador == 16 &#160;&#160;</text>
</g>
<!-- READ_DATA -->
<g id="node7" class="node state regular">
<title>READ_DATA</title>
<polygon fill="#ffffff" fill-opacity="0.003922" stroke="transparent" stroke-width="2" points="343,-52 249,-52 249,-16 343,-16 343,-52"/>
<text text-anchor="start" x="259.9994" y="-30.2" font-family="Helvetica,sans-Serif" font-size="12.00" fill="#000000">READ_DATA</text>
<path fill="none" stroke="#000000" stroke-width="2" d="M261.3333,-17C261.3333,-17 330.6667,-17 330.6667,-17 336.3333,-17 342,-22.6667 342,-28.3333 342,-28.3333 342,-39.6667 342,-39.6667 342,-45.3333 336.3333,-51 330.6667,-51 330.6667,-51 261.3333,-51 261.3333,-51 255.6667,-51 250,-45.3333 250,-39.6667 250,-39.6667 250,-28.3333 250,-28.3333 250,-22.6667 255.6667,-17 261.3333,-17"/>
</g>
<!-- TURNAROUND&#45;&gt;READ_DATA -->
<g id="edge7" class="edge transition">
<title>TURNAROUND&#45;&gt;READ_DATA</title>
<path fill="none" stroke="#000000" d="M199.9444,-109.8759C218.4649,-95.2462 244.7004,-74.5224 265.0742,-58.4288"/>
<polygon fill="#000000" stroke="#000000" points="267.4484,-61.0136 273.126,-52.0685 263.1094,-55.5206 267.4484,-61.0136"/>
<text text-anchor="start" x="251" y="-84" font-family="Helvetica,sans-Serif" font-size="10.00" fill="#000000">op_bit &#160;&#160;</text>
<text text-anchor="start" x="251" y="-72" font-family="Helvetica,sans-Serif" font-size="10.00" fill="#000000">contador == 16 &#160;&#160;</text>
</g>
<!-- WRITE_DATA&#45;&gt;IDLE -->
<g id="edge10" class="edge transition">
<title>WRITE_DATA&#45;&gt;IDLE</title>
<path fill="none" stroke="#000000" d="M51.1685,-52.0576C45.7852,-60.3587 41,-70.6487 41,-81 41,-333 41,-333 41,-333 41,-353.5308 98.5331,-364.6991 138.7587,-369.9986"/>
<polygon fill="#000000" stroke="#000000" points="138.4649,-373.489 148.8207,-371.2515 139.3298,-366.5426 138.4649,-373.489"/>
<text text-anchor="start" x="41" y="-207" font-family="Helvetica,sans-Serif" font-size="10.00" fill="#000000">contador == 0 &#160;&#160;</text>
</g>
<!-- WRITE_DATA&#45;&gt;WRITE_DATA -->
<g id="edge11" class="edge transition">
<title>WRITE_DATA&#45;&gt;WRITE_DATA</title>
<path fill="none" stroke="#000000" d="M115.7872,-38.8081C128.2127,-38.4718 137.5,-36.8691 137.5,-34 137.5,-31.9826 132.9085,-30.5914 125.863,-29.8263"/>
<polygon fill="#000000" stroke="#000000" points="125.9874,-26.3272 115.7872,-29.1919 125.5475,-33.3134 125.9874,-26.3272"/>
<text text-anchor="start" x="137.5" y="-31" font-family="Helvetica,sans-Serif" font-size="10.00" fill="#000000">not (contador == 0) &#160;&#160;</text>
</g>
<!-- READ_DATA&#45;&gt;IDLE -->
<g id="edge12" class="edge transition">
<title>READ_DATA&#45;&gt;IDLE</title>
<path fill="none" stroke="#000000" d="M343.4703,-42.902C362.9406,-49.5618 381,-61.1021 381,-81 381,-333 381,-333 381,-333 381,-349.6986 274.5816,-363.6638 215.4682,-370.133"/>
<polygon fill="#000000" stroke="#000000" points="214.9352,-366.67 205.3653,-371.2162 215.6815,-373.6301 214.9352,-366.67"/>
<text text-anchor="start" x="381" y="-207" font-family="Helvetica,sans-Serif" font-size="10.00" fill="#000000">contador == 0 &#160;&#160;</text>
</g>
<!-- READ_DATA&#45;&gt;READ_DATA -->
<g id="edge13" class="edge transition">
<title>READ_DATA&#45;&gt;READ_DATA</title>
<path fill="none" stroke="#000000" d="M343.0851,-38.8322C355.5552,-38.556 365,-36.9453 365,-34 365,-31.9291 360.3306,-30.518 353.2234,-29.7666"/>
<polygon fill="#000000" stroke="#000000" points="353.2741,-26.2636 343.0851,-29.1678 352.8613,-33.2514 353.2741,-26.2636"/>
<text text-anchor="start" x="365" y="-31" font-family="Helvetica,sans-Serif" font-size="10.00" fill="#000000">not (contador == 0) &#160;&#160;</text>
</g>
</g>
</svg>
